<?xml version="1.0" encoding="UTF-8" standalone="no"?>
<svg
   width="265.75266mm"
   height="306.86176mm"
   viewBox="0 0 265.75266 306.86176"
   version="1.1"
   id="svg271"
   xmlns="http://www.w3.org/2000/svg"
   xmlns:svg="http://www.w3.org/2000/svg">
  <defs
     id="defs268">
    <linearGradient
       id="SVGID_1_"
       gradientUnits="userSpaceOnUse"
       x1="629.78302"
       y1="325.06"
       x2="457.77069"
       y2="292.66809">
      <stop
         offset="0"
         style="stop-color: #27AAE1;"
         id="stop9" />
      <stop
         offset="1"
         style="stop-color: #2B3990;"
         id="stop11" />
    </linearGradient>
    <linearGradient
       id="SVGID_00000028317920878945287600000000752022268518740911_"
       gradientUnits="userSpaceOnUse"
       x1="436.0528"
       y1="347.50601"
       x2="433.81879"
       y2="554.14423">
      <stop
         offset="0"
         style="stop-color: #27AAE1;"
         id="stop16" />
      <stop
         offset="1"
         style="stop-color: #2B3990;"
         id="stop18" />
    </linearGradient>
    <linearGradient
       id="SVGID_00000172419121710103247160000014512196262513632682_"
       gradientUnits="userSpaceOnUse"
       x1="633.21997"
       y1="449.31369"
       x2="632.10309"
       y2="367.77539">
      <stop
         offset="0"
         style="stop-color: #27AAE1;"
         id="stop23" />
      <stop
         offset="1"
         style="stop-color: #2B3990;"
         id="stop25" />
    </linearGradient>
    <linearGradient
       id="SVGID_00000050633455971155334480000006944875665592415881_"
       gradientUnits="userSpaceOnUse"
       x1="473.30969"
       y1="513.05438"
       x2="607.34528"
       y2="446.03659">
      <stop
         offset="0"
         style="stop-color: #27AAE1;"
         id="stop30" />
      <stop
         offset="1"
         style="stop-color: #2B3990;"
         id="stop32" />
    </linearGradient>
  </defs>
  <g
     id="layer1"
     style="display:inline">
    <polygon
       fill="url(#SVGID_1_)"
       points="464.06,353.96 406.06,320.45 533.57,246.83 661.14,320.48 603.12,354 533.57,313.83 "
       style="fill:url(#SVGID_1_)"
       id="polygon14"
       transform="matrix(0.656066,0,0,0.656066,-217.18409,-105.23299)" />
    <polygon
       fill="url(#SVGID_00000028317920878945287600000000752022268518740911_)"
       points="463.91,587.9 405.89,554.41 405.89,320.55 406.06,320.45 464.06,353.96 463.91,354.05 "
       style="fill:url(#SVGID_00000028317920878945287600000000752022268518740911_)"
       id="polygon21"
       transform="matrix(0.656066,0,0,0.656066,-217.18409,-105.23299)" />
    <polygon
       fill="url(#SVGID_00000172419121710103247160000014512196262513632682_)"
       points="603.23,354.05 603.12,354 661.14,320.48 661.25,320.55 661.25,467.82 603.23,434.32 "
       style="fill:url(#SVGID_00000172419121710103247160000014512196262513632682_)"
       id="polygon28"
       transform="matrix(0.656066,0,0,0.656066,-217.18409,-105.23299)" />
    <polygon
       fill="url(#SVGID_00000050633455971155334480000006944875665592415881_)"
       points="486.66,514.61 486.66,447.61 533.57,474.7 603.23,434.47 603.23,434.32 661.25,467.82 661.25,467.97 533.57,541.69 "
       style="fill:url(#SVGID_00000050633455971155334480000006944875665592415881_)"
       id="polygon35"
       transform="matrix(0.656066,0,0,0.656066,-217.18409,-105.23299)" />
    <polygon
       fill="#A7A9AC"
       points="382,501.2 382,540.62 331.04,511.2 331.04,277.33 533.57,160.4 736.11,277.33 736.11,511.2 533.57,628.13 487.8,601.69 487.8,562.27 533.57,588.71 701.98,491.49 701.98,297.04 533.57,199.8 365.17,297.04 365.17,491.49 "
       style="fill:#000000;fill-opacity:1"
       id="polygon37"
       transform="matrix(0.656066,0,0,0.656066,-217.18409,-105.23299)" />
  </g>
</svg>
