<svg xmlns="http://www.w3.org/2000/svg" viewBox="20.0050048828125 69.26276996526855 534.989990234375 436.47287063104613"> <svg xmlns="http://www.w3.org/2000/svg" xmlns:xlink="http://www.w3.org/1999/xlink" version="1.1" id="Layer_1" x="200.95743459348589" y="139.26276996526855" viewBox="331.0400085449219 160.39999389648438 405.0699768066406 467.7300109863281" enable-background="new 0 0 1200 800" xml:space="preserve" height="199.86019388742153" width="173.08568622864465" preserveAspectRatio="xMinYMin" style="overflow: visible;"><linearGradient id="SVGID_1_" gradientUnits="userSpaceOnUse" x1="629.783" y1="325.06" x2="457.7707" y2="292.6681" style=""><stop offset="0" style="stop-color: #27AAE1;"></stop><stop offset="1" style="stop-color: #2B3990;"></stop></linearGradient><polygon fill="url(#SVGID_1_)" points="661.14,320.48 603.12,354 533.57,313.83 464.06,353.96 406.06,320.45 533.57,246.83  " style="fill: url(#SVGID_1_);"></polygon><linearGradient id="SVGID_00000028317920878945287600000000752022268518740911_" gradientUnits="userSpaceOnUse" x1="436.0528" y1="347.506" x2="433.8188" y2="554.1442" style=""><stop offset="0" style="stop-color: #27AAE1;"></stop><stop offset="1" style="stop-color: #2B3990;"></stop></linearGradient><polygon fill="url(#SVGID_00000028317920878945287600000000752022268518740911_)" points="406.06,320.45 464.06,353.96    463.91,354.05 463.91,587.9 405.89,554.41 405.89,320.55  " style="fill: url(#SVGID_00000028317920878945287600000000752022268518740911_);"></polygon><linearGradient id="SVGID_00000172419121710103247160000014512196262513632682_" gradientUnits="userSpaceOnUse" x1="633.22" y1="449.3137" x2="632.1031" y2="367.7754" style=""><stop offset="0" style="stop-color: #27AAE1;"></stop><stop offset="1" style="stop-color: #2B3990;"></stop></linearGradient><polygon fill="url(#SVGID_00000172419121710103247160000014512196262513632682_)" points="661.25,320.55 661.25,467.82    603.23,434.32 603.23,354.05 603.12,354 661.14,320.48  " style="fill: url(#SVGID_00000172419121710103247160000014512196262513632682_);"></polygon><linearGradient id="SVGID_00000050633455971155334480000006944875665592415881_" gradientUnits="userSpaceOnUse" x1="473.3097" y1="513.0544" x2="607.3453" y2="446.0366" style=""><stop offset="0" style="stop-color: #27AAE1;"></stop><stop offset="1" style="stop-color: #2B3990;"></stop></linearGradient><polygon fill="url(#SVGID_00000050633455971155334480000006944875665592415881_)" points="661.25,467.82 661.25,467.97    533.57,541.69 486.66,514.61 486.66,447.61 533.57,474.7 603.23,434.47 603.23,434.32  " style="fill: url(#SVGID_00000050633455971155334480000006944875665592415881_);"></polygon><polygon fill="#A7A9AC" points="736.11,277.33 736.11,511.2 533.57,628.13 487.8,601.69 487.8,562.27 533.57,588.71 701.98,491.49    701.98,297.04 533.57,199.8 365.17,297.04 365.17,491.49 382,501.2 382,540.62 331.04,511.2 331.04,277.33 533.57,160.4  " style="fill: #000; fill-opacity: 1;"></polygon></svg> <svg xmlns="http://www.w3.org/2000/svg" y="416.60563952819945" viewBox="1.5099999904632568 4.199999809265137 377.6600036621094 19.130001068115234" x="98.67000082079892" height="19.130001068115234" width="377.6600036621094" style="overflow: visible;"><g fill="#000" style=""><path d="M8.39 23.02L6.57 23.02L6.57 6.53L1.51 6.53L1.51 4.77L13.46 4.77L13.46 6.53L8.39 6.53L8.39 23.02ZM19.13 23.02L17.31 23.02L17.31 5.04L19.13 4.20L19.13 11.42Q19.69 10.44 20.63 9.91Q21.57 9.38 22.75 9.38L22.75 9.38Q24.43 9.38 25.44 10.10Q26.45 10.81 26.90 12.11Q27.35 13.41 27.35 15.20L27.35 15.20L27.35 23.02L25.52 23.02L25.52 14.87Q25.52 13.15 24.80 12.11Q24.07 11.07 22.47 11.07L22.47 11.07Q20.83 11.07 19.98 12.07Q19.13 13.07 19.13 15.03L19.13 15.03L19.13 23.02ZM36.80 23.33L36.80 23.33Q35.02 23.33 33.74 22.45Q32.46 21.57 31.76 19.99Q31.07 18.42 31.07 16.35L31.07 16.35Q31.07 14.14 31.80 12.58Q32.52 11.03 33.81 10.21Q35.10 9.38 36.80 9.38L36.80 9.38Q38.27 9.38 39.47 10.08Q40.67 10.77 41.37 12.21Q42.08 13.66 42.08 15.93L42.08 15.93Q42.08 16.16 42.06 16.46Q42.05 16.75 42.02 17.06L42.02 17.06L32.96 17.06Q33.07 18.44 33.53 19.48Q33.99 20.52 34.82 21.11Q35.65 21.70 36.86 21.70L36.86 21.70Q37.68 21.70 38.44 21.41Q39.19 21.12 39.85 20.50L39.85 20.50L40.91 21.73Q40.19 22.42 39.12 22.88Q38.06 23.33 36.80 23.33ZM32.94 15.46L32.94 15.46L40.21 15.46Q40.21 14.22 39.84 13.20Q39.47 12.19 38.71 11.59Q37.94 10.99 36.80 10.99L36.80 10.99Q35.24 10.99 34.16 12.06Q33.07 13.13 32.94 15.46ZM55.55 23.33L55.55 23.33Q54.22 23.33 53.00 22.76Q51.77 22.18 50.94 21.17L50.94 21.17L52.27 20.03Q52.98 20.82 53.86 21.25Q54.73 21.68 55.58 21.68L55.58 21.68Q56.86 21.68 57.55 21.15Q58.25 20.63 58.25 19.69L58.25 19.69Q58.25 19.11 57.93 18.63Q57.61 18.14 56.90 17.72Q56.18 17.30 55.01 16.85L55.01 16.85Q52.89 16.07 51.97 15.14Q51.04 14.21 51.04 12.83L51.04 12.83Q51.04 11.29 52.24 10.34Q53.43 9.38 55.34 9.38L55.34 9.38Q56.61 9.38 57.72 9.87Q58.82 10.36 59.61 11.27L59.61 11.27L58.33 12.34Q57.05 11.04 55.32 11.04L55.32 11.04Q54.18 11.04 53.53 11.52Q52.87 11.99 52.87 12.83L52.87 12.83Q52.87 13.59 53.55 14.15Q54.22 14.70 56.02 15.37L56.02 15.37Q57.48 15.91 58.37 16.52Q59.25 17.13 59.65 17.90Q60.05 18.67 60.05 19.67L60.05 19.67Q60.05 21.38 58.85 22.35Q57.65 23.33 55.55 23.33ZM67.39 23.33L67.39 23.33Q66.07 23.33 65.39 22.53Q64.70 21.73 64.70 20.20L64.70 20.20L64.70 11.30L62.50 11.30L62.50 9.70L64.70 9.70L64.70 5.08L66.53 4.20L66.53 9.70L69.84 9.70L69.84 11.30L66.53 11.30L66.53 19.66Q66.53 20.70 66.87 21.16Q67.22 21.62 67.99 21.62L67.99 21.62Q68.93 21.62 69.96 20.95L69.96 20.95L69.75 22.75Q69.23 23.04 68.63 23.19Q68.03 23.33 67.39 23.33ZM78.12 23.33L78.12 23.33Q75.76 23.33 74.60 21.90Q73.45 20.46 73.45 17.53L73.45 17.53L73.45 9.70L75.27 9.70L75.27 17.83Q75.27 19.71 76.06 20.67Q76.84 21.64 78.32 21.64L78.32 21.64Q79.98 21.64 80.82 20.63Q81.66 19.62 81.66 17.66L81.66 17.66L81.66 9.70L83.49 9.70L83.49 23.02L81.66 23.02L81.66 21.42Q81.06 22.38 80.18 22.86Q79.30 23.33 78.12 23.33ZM92.70 23.33L92.70 23.33Q90.22 23.33 88.78 21.45Q87.34 19.56 87.34 16.35L87.34 16.35Q87.34 14.18 88.00 12.62Q88.65 11.07 89.87 10.23Q91.08 9.38 92.77 9.38L92.77 9.38Q94.84 9.38 96.27 10.97L96.27 10.97L96.27 5.07L98.10 4.20L98.10 23.02L96.27 23.02L96.27 21.69Q94.88 23.33 92.70 23.33ZM92.97 21.61L92.97 21.61Q93.95 21.61 94.84 21.04Q95.72 20.48 96.27 19.50L96.27 19.50L96.27 13.11Q95.69 12.17 94.81 11.63Q93.93 11.09 92.97 11.09L92.97 11.09Q91.18 11.09 90.19 12.45Q89.21 13.82 89.21 16.35L89.21 16.35Q89.21 17.90 89.69 19.08Q90.17 20.27 91.02 20.94Q91.87 21.61 92.97 21.61ZM107.65 23.33L107.65 23.33Q105.88 23.33 104.59 22.45Q103.31 21.57 102.62 19.99Q101.93 18.42 101.93 16.35L101.93 16.35Q101.93 14.14 102.65 12.58Q103.38 11.03 104.67 10.21Q105.96 9.38 107.65 9.38L107.65 9.38Q109.12 9.38 110.32 10.08Q111.52 10.77 112.23 12.21Q112.93 13.66 112.93 15.93L112.93 15.93Q112.93 16.16 112.92 16.46Q112.90 16.75 112.88 17.06L112.88 17.06L103.82 17.06Q103.92 18.44 104.39 19.48Q104.85 20.52 105.68 21.11Q106.50 21.70 107.72 21.70L107.72 21.70Q108.54 21.70 109.29 21.41Q110.05 21.12 110.70 20.50L110.70 20.50L111.77 21.73Q111.04 22.42 109.98 22.88Q108.92 23.33 107.65 23.33ZM103.79 15.46L103.79 15.46L111.07 15.46Q111.07 14.22 110.69 13.20Q110.32 12.19 109.56 11.59Q108.80 10.99 107.65 10.99L107.65 10.99Q106.10 10.99 105.01 12.06Q103.92 13.13 103.79 15.46ZM118.46 23.02L116.63 23.02L116.63 9.70L118.46 9.70L118.46 11.41Q119.02 10.43 119.95 9.91Q120.88 9.38 122.07 9.38L122.07 9.38Q124.40 9.38 125.53 10.83Q126.67 12.27 126.67 15.20L126.67 15.20L126.67 23.02L124.84 23.02L124.84 14.87Q124.84 13.01 124.06 12.04Q123.28 11.07 121.79 11.07L121.79 11.07Q120.15 11.07 119.30 12.07Q118.46 13.07 118.46 15.03L118.46 15.03L118.46 23.02ZM134.71 23.33L134.71 23.33Q133.39 23.33 132.71 22.53Q132.03 21.73 132.03 20.20L132.03 20.20L132.03 11.30L129.82 11.30L129.82 9.70L132.03 9.70L132.03 5.08L133.85 4.20L133.85 9.70L137.16 9.70L137.16 11.30L133.85 11.30L133.85 19.66Q133.85 20.70 134.20 21.16Q134.54 21.62 135.31 21.62L135.31 21.62Q136.25 21.62 137.28 20.95L137.28 20.95L137.07 22.75Q136.55 23.04 135.95 23.19Q135.35 23.33 134.71 23.33ZM152.39 23.33L152.39 23.33Q151.28 23.33 150.41 22.92Q149.54 22.51 148.72 21.62L148.72 21.62L148.72 23.02L146.90 23.02L146.90 5.07L148.72 4.20L148.72 11.12Q149.36 10.30 150.30 9.84Q151.24 9.38 152.28 9.38L152.28 9.38Q153.94 9.38 155.14 10.23Q156.33 11.08 156.99 12.64Q157.65 14.21 157.65 16.35L157.65 16.35Q157.65 19.67 156.27 21.50Q154.89 23.33 152.39 23.33ZM152.15 21.61L152.15 21.61Q153.88 21.61 154.82 20.24Q155.76 18.86 155.76 16.35L155.76 16.35Q155.76 13.78 154.83 12.43Q153.90 11.09 152.11 11.09L152.11 11.09Q151.15 11.09 150.19 11.68Q149.23 12.27 148.72 13.18L148.72 13.18L148.72 19.50Q149.28 20.46 150.20 21.04Q151.11 21.61 152.15 21.61ZM166.38 23.33L166.38 23.33Q164.61 23.33 163.33 22.45Q162.04 21.57 161.35 19.99Q160.66 18.42 160.66 16.35L160.66 16.35Q160.66 14.14 161.39 12.58Q162.11 11.03 163.40 10.21Q164.69 9.38 166.38 9.38L166.38 9.38Q167.86 9.38 169.06 10.08Q170.26 10.77 170.96 12.21Q171.66 13.66 171.66 15.93L171.66 15.93Q171.66 16.16 171.65 16.46Q171.64 16.75 171.61 17.06L171.61 17.06L162.55 17.06Q162.66 18.44 163.12 19.48Q163.58 20.52 164.41 21.11Q165.24 21.70 166.45 21.70L166.45 21.70Q167.27 21.70 168.03 21.41Q168.78 21.12 169.43 20.50L169.43 20.50L170.50 21.73Q169.77 22.42 168.71 22.88Q167.65 23.33 166.38 23.33ZM162.53 15.46L162.53 15.46L169.80 15.46Q169.80 14.22 169.43 13.20Q169.06 12.19 168.29 11.59Q167.53 10.99 166.38 10.99L166.38 10.99Q164.83 10.99 163.74 12.06Q162.66 13.13 162.53 15.46ZM179.82 23.33L179.82 23.33Q178.18 23.33 176.99 22.49Q175.81 21.65 175.18 20.09Q174.54 18.53 174.54 16.37L174.54 16.37Q174.54 14.19 175.20 12.63Q175.85 11.07 177.06 10.23Q178.27 9.38 179.95 9.38L179.95 9.38Q181.56 9.38 182.70 10.16Q183.84 10.94 184.36 12.38L184.36 12.38L182.62 13.02Q182.29 12.10 181.60 11.60Q180.90 11.11 179.98 11.11L179.98 11.11Q178.25 11.11 177.34 12.45Q176.43 13.79 176.43 16.37L176.43 16.37Q176.43 18.85 177.33 20.22Q178.23 21.60 179.86 21.60L179.86 21.60Q180.93 21.60 181.70 21.02Q182.47 20.45 182.77 19.46L182.77 19.46L184.49 20.03Q184.03 21.60 182.80 22.46Q181.57 23.33 179.82 23.33ZM193.03 23.33L193.03 23.33Q190.39 23.33 188.87 21.46Q187.34 19.59 187.34 16.37L187.34 16.37Q187.34 14.22 188.03 12.66Q188.72 11.09 190.00 10.24Q191.28 9.38 193.03 9.38L193.03 9.38Q194.79 9.38 196.06 10.23Q197.34 11.07 198.02 12.63Q198.71 14.19 198.71 16.35L198.71 16.35Q198.71 18.50 198.02 20.07Q197.33 21.64 196.05 22.48Q194.77 23.33 193.03 23.33ZM193.03 21.61L193.03 21.61Q194.83 21.61 195.84 20.22Q196.85 18.82 196.85 16.35L196.85 16.35Q196.85 13.86 195.84 12.47Q194.83 11.09 193.03 11.09L193.03 11.09Q191.20 11.09 190.20 12.47Q189.21 13.84 189.21 16.37L189.21 16.37Q189.21 18.86 190.21 20.24Q191.21 21.61 193.03 21.61ZM204.38 23.02L202.55 23.02L202.55 9.70L204.38 9.70L204.38 11.26Q204.95 10.35 205.88 9.87Q206.80 9.38 207.95 9.38L207.95 9.38Q209.22 9.38 210.16 10.01Q211.10 10.64 211.56 11.77L211.56 11.77Q212.12 10.65 213.16 10.02Q214.19 9.38 215.47 9.38L215.47 9.38Q217.54 9.38 218.77 10.67Q219.99 11.95 219.99 14.14L219.99 14.14L219.99 23.02L218.17 23.02L218.17 14.85Q218.17 13.00 217.43 12.03Q216.68 11.07 215.28 11.07L215.28 11.07Q214.35 11.07 213.65 11.55Q212.96 12.03 212.56 12.90Q212.17 13.76 212.17 14.90L212.17 14.90L212.17 23.02L210.35 23.02L210.35 14.85Q210.35 12.98 209.63 12.02Q208.92 11.07 207.49 11.07L207.49 11.07Q206.05 11.07 205.21 12.09Q204.38 13.11 204.38 14.89L204.38 14.89L204.38 23.02ZM229.43 23.33L229.43 23.33Q227.66 23.33 226.37 22.45Q225.09 21.57 224.40 19.99Q223.71 18.42 223.71 16.35L223.71 16.35Q223.71 14.14 224.43 12.58Q225.16 11.03 226.45 10.21Q227.74 9.38 229.43 9.38L229.43 9.38Q230.90 9.38 232.10 10.08Q233.30 10.77 234.01 12.21Q234.71 13.66 234.71 15.93L234.71 15.93Q234.71 16.16 234.70 16.46Q234.68 16.75 234.66 17.06L234.66 17.06L225.60 17.06Q225.70 18.44 226.17 19.48Q226.63 20.52 227.46 21.11Q228.28 21.70 229.50 21.70L229.50 21.70Q230.32 21.70 231.07 21.41Q231.83 21.12 232.48 20.50L232.48 20.50L233.55 21.73Q232.82 22.42 231.76 22.88Q230.70 23.33 229.43 23.33ZM225.57 15.46L225.57 15.46L232.85 15.46Q232.85 14.22 232.47 13.20Q232.10 12.19 231.34 11.59Q230.58 10.99 229.43 10.99L229.43 10.99Q227.88 10.99 226.79 12.06Q225.70 13.13 225.57 15.46ZM242.19 23.33L242.19 23.33Q240.86 23.33 239.64 22.76Q238.41 22.18 237.58 21.17L237.58 21.17L238.91 20.03Q239.62 20.82 240.50 21.25Q241.37 21.68 242.22 21.68L242.22 21.68Q243.50 21.68 244.19 21.15Q244.89 20.63 244.89 19.69L244.89 19.69Q244.89 19.11 244.57 18.63Q244.25 18.14 243.53 17.72Q242.82 17.30 241.64 16.85L241.64 16.85Q239.53 16.07 238.61 15.14Q237.68 14.21 237.68 12.83L237.68 12.83Q237.68 11.29 238.87 10.34Q240.07 9.38 241.98 9.38L241.98 9.38Q243.25 9.38 244.36 9.87Q245.46 10.36 246.25 11.27L246.25 11.27L244.97 12.34Q243.69 11.04 241.96 11.04L241.96 11.04Q240.82 11.04 240.17 11.52Q239.51 11.99 239.51 12.83L239.51 12.83Q239.51 13.59 240.18 14.15Q240.86 14.70 242.66 15.37L242.66 15.37Q244.12 15.91 245.01 16.52Q245.89 17.13 246.29 17.90Q246.69 18.67 246.69 19.67L246.69 19.67Q246.69 21.38 245.49 22.35Q244.29 23.33 242.19 23.33ZM260.02 23.33L260.02 23.33Q258.71 23.33 258.02 22.53Q257.34 21.73 257.34 20.20L257.34 20.20L257.34 11.30L255.14 11.30L255.14 9.70L257.34 9.70L257.34 5.08L259.16 4.20L259.16 9.70L262.47 9.70L262.47 11.30L259.16 11.30L259.16 19.66Q259.16 20.70 259.51 21.16Q259.85 21.62 260.62 21.62L260.62 21.62Q261.56 21.62 262.59 20.95L262.59 20.95L262.38 22.75Q261.86 23.04 261.26 23.19Q260.66 23.33 260.02 23.33ZM268.04 23.02L266.21 23.02L266.21 5.04L268.04 4.20L268.04 11.42Q268.60 10.44 269.54 9.91Q270.48 9.38 271.65 9.38L271.65 9.38Q273.33 9.38 274.34 10.10Q275.35 10.81 275.80 12.11Q276.25 13.41 276.25 15.20L276.25 15.20L276.25 23.02L274.43 23.02L274.43 14.87Q274.43 13.15 273.70 12.11Q272.98 11.07 271.38 11.07L271.38 11.07Q269.73 11.07 268.89 12.07Q268.04 13.07 268.04 15.03L268.04 15.03L268.04 23.02ZM285.70 23.33L285.70 23.33Q283.93 23.33 282.64 22.45Q281.36 21.57 280.67 19.99Q279.98 18.42 279.98 16.35L279.98 16.35Q279.98 14.14 280.70 12.58Q281.43 11.03 282.72 10.21Q284.01 9.38 285.70 9.38L285.70 9.38Q287.17 9.38 288.37 10.08Q289.57 10.77 290.28 12.21Q290.98 13.66 290.98 15.93L290.98 15.93Q290.98 16.16 290.97 16.46Q290.95 16.75 290.93 17.06L290.93 17.06L281.87 17.06Q281.97 18.44 282.44 19.48Q282.90 20.52 283.73 21.11Q284.55 21.70 285.77 21.70L285.77 21.70Q286.59 21.70 287.34 21.41Q288.10 21.12 288.75 20.50L288.75 20.50L289.82 21.73Q289.09 22.42 288.03 22.88Q286.97 23.33 285.70 23.33ZM281.84 15.46L281.84 15.46L289.12 15.46Q289.12 14.22 288.74 13.20Q288.37 12.19 287.61 11.59Q286.85 10.99 285.70 10.99L285.70 10.99Q284.15 10.99 283.06 12.06Q281.97 13.13 281.84 15.46ZM302.50 23.02L300.68 23.02L300.68 9.70L302.50 9.70L302.50 11.26Q303.08 10.35 304.00 9.87Q304.93 9.38 306.07 9.38L306.07 9.38Q307.34 9.38 308.28 10.01Q309.23 10.64 309.68 11.77L309.68 11.77Q310.24 10.65 311.28 10.02Q312.32 9.38 313.59 9.38L313.59 9.38Q315.67 9.38 316.89 10.67Q318.12 11.95 318.12 14.14L318.12 14.14L318.12 23.02L316.29 23.02L316.29 14.85Q316.29 13.00 315.55 12.03Q314.81 11.07 313.40 11.07L313.40 11.07Q312.47 11.07 311.78 11.55Q311.08 12.03 310.69 12.90Q310.30 13.76 310.30 14.90L310.30 14.90L310.30 23.02L308.47 23.02L308.47 14.85Q308.47 12.98 307.75 12.02Q307.04 11.07 305.62 11.07L305.62 11.07Q304.17 11.07 303.34 12.09Q302.50 13.11 302.50 14.89L302.50 14.89L302.50 23.02ZM326.38 23.33L326.38 23.33Q324.27 23.33 323.07 22.15Q321.87 20.97 321.87 18.90L321.87 18.90Q321.87 17.57 322.46 16.59Q323.06 15.62 324.15 15.09Q325.23 14.56 326.72 14.56L326.72 14.56Q327.70 14.56 328.59 14.81Q329.48 15.05 330.32 15.55L330.32 15.55L330.32 14.27Q330.32 12.58 329.58 11.78Q328.84 10.99 327.29 10.99L327.29 10.99Q326.37 10.99 325.33 11.33Q324.30 11.68 323.37 12.30L323.37 12.30L322.84 10.77Q323.89 10.10 325.12 9.74Q326.34 9.38 327.52 9.38L327.52 9.38Q329.76 9.38 330.90 10.56Q332.05 11.73 332.05 14.01L332.05 14.01L332.05 23.02L330.32 23.02L330.32 21.51Q329.52 22.38 328.50 22.86Q327.48 23.33 326.38 23.33ZM326.62 21.73L326.62 21.73Q327.62 21.73 328.57 21.20Q329.52 20.67 330.32 19.68L330.32 19.68L330.32 17.19Q329.55 16.70 328.66 16.43Q327.76 16.16 326.93 16.16L326.93 16.16Q325.43 16.16 324.54 16.91Q323.64 17.66 323.64 18.91L323.64 18.91Q323.64 20.20 324.44 20.97Q325.23 21.73 326.62 21.73ZM340.07 23.33L340.07 23.33Q338.74 23.33 337.51 22.76Q336.29 22.18 335.45 21.17L335.45 21.17L336.78 20.03Q337.50 20.82 338.37 21.25Q339.25 21.68 340.09 21.68L340.09 21.68Q341.37 21.68 342.07 21.15Q342.77 20.63 342.77 19.69L342.77 19.69Q342.77 19.11 342.45 18.63Q342.13 18.14 341.41 17.72Q340.69 17.30 339.52 16.85L339.52 16.85Q337.41 16.07 336.48 15.14Q335.56 14.21 335.56 12.83L335.56 12.83Q335.56 11.29 336.75 10.34Q337.94 9.38 339.86 9.38L339.86 9.38Q341.12 9.38 342.23 9.87Q343.34 10.36 344.12 11.27L344.12 11.27L342.84 12.34Q341.57 11.04 339.83 11.04L339.83 11.04Q338.70 11.04 338.04 11.52Q337.38 11.99 337.38 12.83L337.38 12.83Q337.38 13.59 338.06 14.15Q338.74 14.70 340.54 15.37L340.54 15.37Q342.00 15.91 342.88 16.52Q343.77 17.13 344.17 17.90Q344.56 18.67 344.56 19.67L344.56 19.67Q344.56 21.38 343.36 22.35Q342.17 23.33 340.07 23.33ZM351.90 23.33L351.90 23.33Q350.59 23.33 349.90 22.53Q349.22 21.73 349.22 20.20L349.22 20.20L349.22 11.30L347.01 11.30L347.01 9.70L349.22 9.70L349.22 5.08L351.04 4.20L351.04 9.70L354.35 9.70L354.35 11.30L351.04 11.30L351.04 19.66Q351.04 20.70 351.39 21.16Q351.73 21.62 352.50 21.62L352.50 21.62Q353.44 21.62 354.47 20.95L354.47 20.95L354.26 22.75Q353.74 23.04 353.14 23.19Q352.54 23.33 351.90 23.33ZM362.99 23.33L362.99 23.33Q361.22 23.33 359.94 22.45Q358.65 21.57 357.96 19.99Q357.27 18.42 357.27 16.35L357.27 16.35Q357.27 14.14 358.00 12.58Q358.72 11.03 360.01 10.21Q361.30 9.38 362.99 9.38L362.99 9.38Q364.47 9.38 365.67 10.08Q366.87 10.77 367.57 12.21Q368.27 13.66 368.27 15.93L368.27 15.93Q368.27 16.16 368.26 16.46Q368.25 16.75 368.22 17.06L368.22 17.06L359.16 17.06Q359.27 18.44 359.73 19.48Q360.19 20.52 361.02 21.11Q361.85 21.70 363.06 21.70L363.06 21.70Q363.88 21.70 364.64 21.41Q365.39 21.12 366.04 20.50L366.04 20.50L367.11 21.73Q366.38 22.42 365.32 22.88Q364.26 23.33 362.99 23.33ZM359.14 15.46L359.14 15.46L366.41 15.46Q366.41 14.22 366.04 13.20Q365.67 12.19 364.90 11.59Q364.14 10.99 362.99 10.99L362.99 10.99Q361.44 10.99 360.36 12.06Q359.27 13.13 359.14 15.46ZM373.80 23.02L371.98 23.02L371.98 9.70L373.80 9.70L373.80 11.81Q374.30 10.64 375.18 10.01Q376.06 9.38 377.22 9.38L377.22 9.38Q378.41 9.38 379.17 10.02L379.17 10.02L378.90 11.76Q378.51 11.48 378.04 11.35Q377.58 11.22 377.05 11.22L377.05 11.22Q376.08 11.22 375.35 11.77Q374.62 12.32 374.21 13.29Q373.80 14.26 373.80 15.55L373.80 15.55L373.80 23.02Z" transform="translate(0, 0)"></path></g></svg> <svg xmlns="http://www.w3.org/2000/svg" y="357.2267483946215" viewBox="4.869999885559082 9.779999732971191 394.989990234375 44.06999969482422" x="90.0050048828125" height="44.06999969482422" width="394.989990234375" style="overflow: visible;"><g fill="#000" style=""><path d="M9.50 44.86L4.87 44.86L4.87 12.42L17.52 12.42Q21.78 12.42 24.79 13.76Q27.81 15.11 29.43 17.66Q31.05 20.21 31.05 23.73L31.05 23.73Q31.05 27.25 29.43 29.78Q27.81 32.30 24.79 33.67Q21.78 35.04 17.52 35.04L17.52 35.04L7.42 35.04L9.50 32.86L9.50 44.86ZM9.50 14.14L9.50 33.32L7.42 31.00L17.38 31.00Q21.83 31.00 24.12 29.10Q26.42 27.20 26.42 23.73L26.42 23.73Q26.42 20.25 24.12 18.35Q21.83 16.45 17.38 16.45L17.38 16.45L7.42 16.45L9.50 14.14ZM48.20 45.14L48.20 45.14Q44.49 45.14 41.62 43.52Q38.74 41.90 37.08 39.05Q35.41 36.20 35.41 32.58L35.41 32.58Q35.41 28.92 37.08 26.09Q38.74 23.26 41.62 21.67Q44.49 20.07 48.20 20.07L48.20 20.07Q51.86 20.07 54.76 21.67Q57.65 23.26 59.30 26.07Q60.94 28.87 60.94 32.58L60.94 32.58Q60.94 36.24 59.30 39.07Q57.65 41.90 54.76 43.52Q51.86 45.14 48.20 45.14ZM48.20 41.25L48.20 41.25Q50.56 41.25 52.44 40.18Q54.32 39.11 55.38 37.15Q56.45 35.18 56.45 32.58L56.45 32.58Q56.45 29.94 55.38 28.02Q54.32 26.09 52.44 25.03Q50.56 23.96 48.20 23.96L48.20 23.96Q45.83 23.96 43.98 25.03Q42.13 26.09 41.01 28.02Q39.90 29.94 39.90 32.58L39.90 32.58Q39.90 35.18 41.01 37.15Q42.13 39.11 43.98 40.18Q45.83 41.25 48.20 41.25ZM77.07 33.00L70.72 38.93L70.81 33.23L84.95 20.30L90.33 20.30L79.48 30.96L77.07 33.00ZM71.56 44.86L67.11 44.86L67.11 10.47L71.56 10.47L71.56 44.86ZM91.35 44.86L85.88 44.86L76.24 32.90L79.11 29.34L91.35 44.86ZM106.59 45.14L106.59 45.14Q102.65 45.14 99.66 43.52Q96.67 41.90 95.03 39.07Q93.38 36.24 93.38 32.58L93.38 32.58Q93.38 28.92 94.98 26.09Q96.58 23.26 99.39 21.67Q102.19 20.07 105.71 20.07L105.71 20.07Q109.28 20.07 112.01 21.64Q114.75 23.22 116.30 26.07Q117.85 28.92 117.85 32.72L117.85 32.72Q117.85 33.00 117.83 33.37Q117.81 33.74 117.76 34.06L117.76 34.06L96.86 34.06L96.86 30.87L115.44 30.87L113.64 31.98Q113.68 29.61 112.66 27.76Q111.64 25.91 109.86 24.86Q108.08 23.82 105.71 23.82L105.71 23.82Q103.39 23.82 101.59 24.86Q99.78 25.91 98.76 27.78Q97.74 29.66 97.74 32.07L97.74 32.07L97.74 32.81Q97.74 35.27 98.88 37.19Q100.01 39.11 102.05 40.18Q104.09 41.25 106.73 41.25L106.73 41.25Q108.91 41.25 110.69 40.51Q112.48 39.76 113.82 38.28L113.82 38.28L116.28 41.15Q114.61 43.10 112.13 44.12Q109.65 45.14 106.59 45.14ZM128.47 44.86L124.02 44.86L124.02 20.30L128.28 20.30L128.28 26.97L127.86 25.30Q128.88 22.76 131.29 21.41Q133.70 20.07 137.23 20.07L137.23 20.07L137.23 24.38Q136.95 24.33 136.69 24.33Q136.44 24.33 136.21 24.33L136.21 24.33Q132.64 24.33 130.55 26.46Q128.47 28.59 128.47 32.63L128.47 32.63L128.47 44.86ZM143.53 44.86L138.76 44.86L153.45 12.42L158.03 12.42L172.77 44.86L167.91 44.86L154.79 15.02L156.64 15.02L143.53 44.86ZM165.87 36.75L145.01 36.75L146.26 33.04L164.52 33.04L165.87 36.75ZM189.97 45.14L189.97 45.14Q186.91 45.14 184.38 43.73Q181.86 42.31 180.35 39.53Q178.84 36.75 178.84 32.58L178.84 32.58Q178.84 28.41 180.30 25.63Q181.76 22.85 184.29 21.46Q186.81 20.07 189.97 20.07L189.97 20.07Q193.58 20.07 196.36 21.64Q199.14 23.22 200.76 26.02Q202.39 28.83 202.39 32.58L202.39 32.58Q202.39 36.33 200.76 39.16Q199.14 41.99 196.36 43.56Q193.58 45.14 189.97 45.14ZM181.39 53.85L176.94 53.85L176.94 20.30L181.21 20.30L181.21 26.93L180.93 32.63L181.39 38.33L181.39 53.85ZM189.60 41.25L189.60 41.25Q191.96 41.25 193.84 40.18Q195.71 39.11 196.80 37.15Q197.89 35.18 197.89 32.58L197.89 32.58Q197.89 29.94 196.80 28.02Q195.71 26.09 193.84 25.03Q191.96 23.96 189.60 23.96L189.60 23.96Q187.28 23.96 185.40 25.03Q183.52 26.09 182.44 28.02Q181.35 29.94 181.35 32.58L181.35 32.58Q181.35 35.18 182.44 37.15Q183.52 39.11 185.40 40.18Q187.28 41.25 189.60 41.25ZM221.57 45.14L221.57 45.14Q218.51 45.14 215.99 43.73Q213.46 42.31 211.96 39.53Q210.45 36.75 210.45 32.58L210.45 32.58Q210.45 28.41 211.91 25.63Q213.37 22.85 215.90 21.46Q218.42 20.07 221.57 20.07L221.57 20.07Q225.19 20.07 227.97 21.64Q230.75 23.22 232.37 26.02Q233.99 28.83 233.99 32.58L233.99 32.58Q233.99 36.33 232.37 39.16Q230.75 41.99 227.97 43.56Q225.19 45.14 221.57 45.14ZM213.00 53.85L208.55 53.85L208.55 20.30L212.81 20.30L212.81 26.93L212.54 32.63L213.00 38.33L213.00 53.85ZM221.20 41.25L221.20 41.25Q223.57 41.25 225.44 40.18Q227.32 39.11 228.41 37.15Q229.50 35.18 229.50 32.58L229.50 32.58Q229.50 29.94 228.41 28.02Q227.32 26.09 225.44 25.03Q223.57 23.96 221.20 23.96L221.20 23.96Q218.89 23.96 217.01 25.03Q215.13 26.09 214.04 28.02Q212.95 29.94 212.95 32.58L212.95 32.58Q212.95 35.18 214.04 37.15Q215.13 39.11 217.01 40.18Q218.89 41.25 221.20 41.25ZM244.61 44.86L240.16 44.86L240.16 20.30L244.42 20.30L244.42 26.97L244.00 25.30Q245.02 22.76 247.43 21.41Q249.84 20.07 253.37 20.07L253.37 20.07L253.37 24.38Q253.09 24.33 252.83 24.33Q252.58 24.33 252.35 24.33L252.35 24.33Q248.78 24.33 246.69 26.46Q244.61 28.59 244.61 32.63L244.61 32.63L244.61 44.86ZM270.10 45.14L270.10 45.14Q266.16 45.14 263.17 43.52Q260.18 41.90 258.53 39.07Q256.89 36.24 256.89 32.58L256.89 32.58Q256.89 28.92 258.49 26.09Q260.09 23.26 262.89 21.67Q265.69 20.07 269.22 20.07L269.22 20.07Q272.78 20.07 275.52 21.64Q278.25 23.22 279.80 26.07Q281.36 28.92 281.36 32.72L281.36 32.72Q281.36 33.00 281.33 33.37Q281.31 33.74 281.26 34.06L281.26 34.06L260.36 34.06L260.36 30.87L278.95 30.87L277.14 31.98Q277.19 29.61 276.17 27.76Q275.15 25.91 273.36 24.86Q271.58 23.82 269.22 23.82L269.22 23.82Q266.90 23.82 265.09 24.86Q263.28 25.91 262.26 27.78Q261.24 29.66 261.24 32.07L261.24 32.07L261.24 32.81Q261.24 35.27 262.38 37.19Q263.51 39.11 265.55 40.18Q267.59 41.25 270.23 41.25L270.23 41.25Q272.41 41.25 274.20 40.51Q275.98 39.76 277.33 38.28L277.33 38.28L279.78 41.15Q278.11 43.10 275.63 44.12Q273.15 45.14 270.10 45.14ZM300.64 20.07L300.64 20.07Q303.65 20.07 305.94 21.23Q308.24 22.38 309.53 24.75Q310.83 27.11 310.83 30.73L310.83 30.73L310.83 44.86L306.38 44.86L306.38 31.24Q306.38 27.67 304.65 25.86Q302.91 24.05 299.76 24.05L299.76 24.05Q297.39 24.05 295.63 24.98Q293.87 25.91 292.92 27.71Q291.97 29.52 291.97 32.21L291.97 32.21L291.97 44.86L287.52 44.86L287.52 20.30L291.78 20.30L291.78 26.93L291.09 25.17Q292.29 22.76 294.80 21.41Q297.30 20.07 300.64 20.07ZM327.52 45.14L327.52 45.14Q323.81 45.14 321.77 43.15Q319.73 41.15 319.73 37.45L319.73 37.45L319.73 14.92L324.18 14.92L324.18 37.26Q324.18 39.25 325.18 40.32Q326.17 41.39 328.03 41.39L328.03 41.39Q330.11 41.39 331.50 40.23L331.50 40.23L332.89 43.42Q331.87 44.31 330.46 44.72Q329.05 45.14 327.52 45.14ZM331.22 23.96L315.56 23.96L315.56 20.30L331.22 20.30L331.22 23.96ZM342.72 44.86L338.27 44.86L338.27 20.30L342.72 20.30L342.72 44.86ZM340.49 15.57L340.49 15.57Q339.20 15.57 338.34 14.74Q337.48 13.90 337.48 12.70L337.48 12.70Q337.48 11.45 338.34 10.61Q339.20 9.78 340.49 9.78L340.49 9.78Q341.79 9.78 342.65 10.59Q343.51 11.40 343.51 12.61L343.51 12.61Q343.51 13.86 342.67 14.71Q341.84 15.57 340.49 15.57ZM361.90 45.14L361.90 45.14Q358.15 45.14 355.21 43.52Q352.26 41.90 350.60 39.07Q348.93 36.24 348.93 32.58L348.93 32.58Q348.93 28.92 350.60 26.09Q352.26 23.26 355.21 21.67Q358.15 20.07 361.90 20.07L361.90 20.07Q365.24 20.07 367.86 21.39Q370.48 22.71 371.91 25.30L371.91 25.30L368.53 27.48Q367.33 25.67 365.59 24.82Q363.85 23.96 361.86 23.96L361.86 23.96Q359.45 23.96 357.55 25.03Q355.65 26.09 354.54 28.02Q353.42 29.94 353.42 32.58L353.42 32.58Q353.42 35.22 354.54 37.17Q355.65 39.11 357.55 40.18Q359.45 41.25 361.86 41.25L361.86 41.25Q363.85 41.25 365.59 40.39Q367.33 39.53 368.53 37.72L368.53 37.72L371.91 39.86Q370.48 42.41 367.86 43.77Q365.24 45.14 361.90 45.14ZM388.60 45.14L388.60 45.14Q384.66 45.14 381.67 43.52Q378.68 41.90 377.04 39.07Q375.39 36.24 375.39 32.58L375.39 32.58Q375.39 28.92 376.99 26.09Q378.59 23.26 381.39 21.67Q384.20 20.07 387.72 20.07L387.72 20.07Q391.29 20.07 394.02 21.64Q396.76 23.22 398.31 26.07Q399.86 28.92 399.86 32.72L399.86 32.72Q399.86 33.00 399.84 33.37Q399.81 33.74 399.77 34.06L399.77 34.06L378.87 34.06L378.87 30.87L397.45 30.87L395.64 31.98Q395.69 29.61 394.67 27.76Q393.65 25.91 391.87 24.86Q390.08 23.82 387.72 23.82L387.72 23.82Q385.40 23.82 383.59 24.86Q381.79 25.91 380.77 27.78Q379.75 29.66 379.75 32.07L379.75 32.07L379.75 32.81Q379.75 35.27 380.88 37.19Q382.02 39.11 384.06 40.18Q386.10 41.25 388.74 41.25L388.74 41.25Q390.92 41.25 392.70 40.51Q394.48 39.76 395.83 38.28L395.83 38.28L398.28 41.15Q396.62 43.10 394.14 44.12Q391.66 45.14 388.60 45.14Z" transform="translate(0, 0)"></path></g></svg></svg>